<svg id="Layer_1" data-name="Layer 1" xmlns="http://www.w3.org/2000/svg" width="696.52" height="687.34" viewBox="0 0 696.52 687.34"><defs><style>.cls-1{fill:#1982ff;}</style></defs><title>asus_logo_freelogovectors.net</title><path class="cls-1" d="M645.64,713.08c-96-50.63-191.94-100.12-287.91-150-85.39,50.63-169.65,102.77-256.18,151.51-12.09,6.8-31.36,4.16-43.45-1.13-18.51-7.56-31-27.58-31.36-47.23,0-8.31,1.14-17,4.91-24.56Q184.11,348.09,336.57,54.13c9.82-19.27,33.25-27.2,53.27-20.4,10.58,3.4,18.9,11.33,23.81,20.4C516.8,250.23,618.44,447.46,719.7,644.32c3.78,7.17,3.78,17,3.4,24.56-2.27,26.44-23.81,47.23-50.25,49.11A52.14,52.14,0,0,1,645.64,713.08ZM132.16,609.18c-.38.37-.38,1.13-.76,1.51L504.33,388.52,375.49,140.66a63.62,63.62,0,0,0-4.91,8.69c-76.33,149.24-154.16,297.73-232,446.22A111.38,111.38,0,0,0,132.16,609.18ZM428,520q96.91,47,193.45,94.46L538.34,454.64l-119,60.46C422.34,517,425,518.5,428,520Z" transform="translate(-26.74 -31.33)"/></svg>